<?xml version="1.0" encoding="UTF-8" standalone="no"?>
<!DOCTYPE svg PUBLIC "-//W3C//DTD SVG 1.1//EN" "http://www.w3.org/Graphics/SVG/1.1/DTD/svg11.dtd">
<svg version="1.1" xmlns="http://www.w3.org/2000/svg" xmlns:xlink="http://www.w3.org/1999/xlink" preserveAspectRatio="xMidYMid meet" viewBox="0 0 640 640" width="640" height="640"><defs><path d="M726.58 8.3C726.58 8.3 726.58 8.3 726.58 8.3C726.58 369.5 726.58 570.17 726.58 610.3C726.58 610.3 726.58 610.3 726.58 610.3C245.38 610.3 -21.95 610.3 -75.42 610.3C-75.42 610.3 -75.42 610.3 -75.42 610.3C-75.42 249.1 -75.42 48.44 -75.42 8.3C-75.42 8.3 -75.42 8.3 -75.42 8.3C405.78 8.3 673.11 8.3 726.58 8.3Z" id="a1IT83pHmn"></path><path d="M653.92 -9.04L653.92 657.64L-12.76 657.64L-12.76 -9.04L653.92 -9.04Z" id="a7QrvuuiG"></path><path d="M320.58 157.35L529.75 518.75L111.41 518.75L320.58 157.35M15.02 574.31L626.14 574.31L320.58 46.52L15.02 574.31ZM292.8 435.42L292.8 490.97L348.36 490.97L348.36 435.42L292.8 435.42ZM292.8 268.75L292.8 379.86L348.36 379.86L348.36 268.75L292.8 268.75Z" id="a41xV2DE9L"></path></defs><g><g><g><use xlink:href="#a1IT83pHmn" opacity="1" fill="#ffffff" fill-opacity="1"></use><g><use xlink:href="#a1IT83pHmn" opacity="1" fill-opacity="0" stroke="#000000" stroke-width="1" stroke-opacity="0"></use></g></g><g><use xlink:href="#a7QrvuuiG" opacity="1" fill="#000000" fill-opacity="0"></use><g><use xlink:href="#a7QrvuuiG" opacity="1" fill-opacity="0" stroke="#000000" stroke-width="1" stroke-opacity="1"></use></g></g><g><use xlink:href="#a41xV2DE9L" opacity="1" fill="#ff0000" fill-opacity="1"></use><g><use xlink:href="#a41xV2DE9L" opacity="1" fill-opacity="0" stroke="#ff0000" stroke-width="1" stroke-opacity="1"></use></g></g></g></g></svg>